<?xml version="1.0" encoding="utf-8"?>
<!-- Generator: Adobe Illustrator 23.0.1, SVG Export Plug-In . SVG Version: 6.00 Build 0)  -->
<svg version="1.1" id="Capa_1" xmlns="http://www.w3.org/2000/svg" xmlns:xlink="http://www.w3.org/1999/xlink" x="0px" y="0px"
	 viewBox="0 0 600 600" style="enable-background:new 0 0 600 600;" xml:space="preserve">
<path d="M227.84,523.16c0,18.25,0.41,35.75-0.16,53.23c-0.32,9.65-10.41,14.07-21.82,10.23c-21.13-7.11-41.24-16.48-60.05-28.44
	C74.89,513.1,28.83,449.93,11.86,367.51C-19.73,214.08,71.32,67.64,214.52,25.86C325.2-6.44,424.45,17.82,508.2,97.53
	c48.68,46.33,76.67,104.32,84.07,171.35c9.82,89.05-14.09,168.01-73.89,235.2c-33.62,37.78-74.99,64.38-122.82,80.84
	c-13.23,4.55-21.41-1.32-21.45-15.35c-0.06-23.73-0.24-47.46,0.05-71.18c0.28-22.58-3.2-43.87-19.15-61.88
	c11.85-2.31,23.19-4.07,34.31-6.77c31.46-7.66,58.72-22.02,76.96-50.07c11.78-18.11,17.6-38.33,20.18-59.53
	c2.7-22.18,3.29-44.31-3.09-66.12c-4.26-14.57-11.02-27.77-21.3-39c-2.23-2.43-3-4.36-1.79-7.78c8.53-24.11,5.81-47.97-2.65-71.45
	c-0.65-1.79-4.3-3.95-6.14-3.62c-11.06,1.96-22.53,3.25-32.84,7.36c-13.2,5.25-25.34,13.12-38.13,19.46
	c-2.91,1.44-6.91,2.33-9.97,1.6c-46.39-10.93-92.7-10.93-139.09,0.01c-3.04,0.72-7.22-0.08-9.9-1.75
	c-18.39-11.46-37.15-21.88-58.78-25.99c-15.77-2.99-17.95-1.86-21.84,13.21c-5.4,20.89-6.4,41.73,1.03,62.46
	c0.55,1.54,0,4.21-1.06,5.5c-25.81,31.12-30.48,67.26-25.33,105.75c3.13,23.39,9.84,45.48,24.14,64.68
	c18.55,24.9,44.44,38.05,73.79,45.31c10.72,2.65,21.67,4.42,33.42,6.77c-11.16,9.81-16.52,22.01-18.59,35.91
	c-0.22,1.49-1.86,3.39-3.31,4c-14.44,6.02-29.34,9.22-45.01,5.85c-17.02-3.67-28.65-14.36-37.47-28.81
	c-9.64-15.78-22.69-27.23-41.43-30.6c-4.07-0.73-8.54-0.41-12.64,0.4c-6.85,1.35-7.74,5.15-2.72,10.21
	c1.79,1.81,3.78,3.53,5.96,4.83c15.88,9.48,27.13,23.33,33.45,40.19c13.68,36.45,46.92,51.14,86,46.98
	C216.44,524.91,221.7,524.02,227.84,523.16z"/>
</svg>
